<svg xmlns="http://www.w3.org/2000/svg" width="256" height="256" viewBox="0 0 256 256">
  <defs>
    <linearGradient id="bg" x1="0%" y1="0%" x2="100%" y2="100%">
      <stop offset="0%" stop-color="#0f172a"/>
      <stop offset="50%" stop-color="#1d4ed8"/>
      <stop offset="100%" stop-color="#22c55e"/>
    </linearGradient>
    <linearGradient id="track" x1="0%" y1="100%" x2="100%" y2="0%">
      <stop offset="0%" stop-color="#a855f7"/>
      <stop offset="100%" stop-color="#f97316"/>
    </linearGradient>
    <filter id="shadow" x="-20%" y="-20%" width="140%" height="140%">
      <feDropShadow dx="0" dy="8" stdDeviation="10" flood-color="#020617" flood-opacity="0.35"/>
    </filter>
  </defs>

  <rect x="8" y="8" width="240" height="240" rx="40" fill="url(#bg)"/>

  <path
    d="M 54.00 158.00 C 69.00 158.00, 79.98 158.00, 89.97 156.91 C 99.73 155.85, 105.88 154.39, 114.41 150.51 L 126.00 176.00 L 114.16 150.63 C 118.72 148.50, 120.20 147.33, 123.40 143.80 C 126.48 140.39, 128.22 137.60, 130.81 132.52 C 135.95 122.44, 140.24 108.51, 147.99 95.59 C 148.11 95.38, 148.24 95.17, 148.37 94.97 L 148.38 94.97 C 152.74 88.11, 158.42 81.11, 163.33 76.20 C 168.41 71.11, 174.92 66.03, 180.16 62.76 C 185.59 59.36, 192.35 56.19, 197.51 54.36 C 202.86 52.46, 209.33 50.95, 214.04 50.28 C 229.35 48.09, 243.53 58.73, 245.72 74.04 C 247.91 89.35, 237.27 103.53, 221.96 105.72 C 219.67 106.05, 218.64 106.29, 216.24 107.14 C 213.65 108.06, 212.41 108.64, 209.84 110.24 C 207.08 111.97, 205.59 113.14, 202.92 115.80 C 200.08 118.64, 198.26 120.89, 195.62 125.03 C 195.49 125.24, 195.36 125.45, 195.22 125.65 L 196.01 124.41 C 191.76 131.49, 188.05 143.56, 180.69 157.98 C 177.03 165.15, 171.39 174.23, 164.91 181.39 C 158.55 188.42, 148.28 196.50, 137.84 201.37 C 137.76 201.42, 137.68 201.46, 137.60 201.49 L 137.59 201.49 C 124.12 207.61, 109.27 211.15, 96.03 212.59 C 83.02 214.00, 69.00 214.00, 54.00 214.00 C 38.54 214.00, 26.00 201.46, 26.00 186.00 C 26.00 170.54, 38.54 158.00, 54.00 158.00"
    fill="#ffffff"
    fill-opacity="0.30"
    filter="url(#shadow)"
  />

  <path
    d="M54 186
       C 84 186, 104 186, 126 176
       C 156 162, 160 130, 172 110
       C 186 88, 204 80, 218 78"
    fill="none"
    stroke="url(#track)"
    stroke-width="34"
    stroke-linecap="round"
  />

  <path
    d="M54 186
       C 84 186, 104 186, 126 176
       C 156 162, 160 130, 172 110
       C 186 88, 204 80, 218 78"
    fill="none"
    stroke="#67e8f9"
    stroke-width="6"
    stroke-linecap="round"
    stroke-dasharray="10 10"
  />

  <polygon points="68,174 94,186 68,198" fill="#ffffff"/>

  <rect x="34" y="30" width="90" height="54" rx="14" fill="#ffffff" fill-opacity="0.12" stroke="#ffffff" stroke-opacity="0.35" stroke-width="2"/>
  <path d="M48 68 L64 52 L78 62 L96 40 L110 50" fill="none" stroke="#f8fafc" stroke-width="4" stroke-linecap="round" stroke-linejoin="round"/>

  <circle cx="184" cy="52" r="22" fill="#ffffff" fill-opacity="0.12" stroke="#ffffff" stroke-opacity="0.35" stroke-width="2"/>
  <path d="M172 52 H196 M184 40 V64" stroke="#f8fafc" stroke-width="4" stroke-linecap="round"/>
</svg>
