<svg xmlns="http://www.w3.org/2000/svg" width="256" height="256" viewBox="0 0 256 256">
  <defs>
    <linearGradient id="bg" x1="0%" y1="0%" x2="100%" y2="100%">
      <stop offset="0%" stop-color="#0f172a"/>
      <stop offset="50%" stop-color="#1d4ed8"/>
      <stop offset="100%" stop-color="#22c55e"/>
    </linearGradient>
    <linearGradient id="track" x1="0%" y1="100%" x2="100%" y2="0%">
      <stop offset="0%" stop-color="#a855f7"/>
      <stop offset="100%" stop-color="#f97316"/>
    </linearGradient>
    <filter id="shadow" x="-20%" y="-20%" width="140%" height="140%">
      <feDropShadow dx="0" dy="8" stdDeviation="10" flood-color="#020617" flood-opacity="0.28"/>
    </filter>
  </defs>

  <rect x="8" y="8" width="240" height="240" rx="40" fill="url(#bg)"/>

  <path
    d="M48 164
       C 83 164, 106 164, 131 153
       C 164 139, 170 106, 184 86
       C 194 71, 208 63, 222 61
       Q 234 59, 241 67
       Q 247 75, 243 86
       C 239 96, 232 102, 225 107
       C 214 116, 206 123, 198 136
       C 184 159, 177 185, 157 199
       C 130 218, 108 218, 54 218
       Q 40 218, 34 208
       Q 29 198, 34 186
       Q 38 174, 48 164
       Z"
    fill="#93c5fd"
    fill-opacity="0.40"
    filter="url(#shadow)"
  />

  <path
    d="M57 173
       C 85 173, 105 173, 128 163
       C 158 150, 163 120, 176 101
       C 186 87, 198 80, 212 78
       Q 221 76, 226 82
       Q 230 88, 227 95
       C 223 103, 217 108, 211 113
       C 201 120, 194 127, 187 139
       C 175 159, 169 181, 151 192
       C 127 206, 108 206, 61 206
       Q 51 206, 47 198
       Q 43 190, 47 183
       Q 50 176, 57 173
       Z"
    fill="url(#track)"
  />

  <path
    d="M54 186
       C 84 186, 104 186, 126 176
       C 156 162, 160 130, 172 110
       C 186 88, 204 80, 218 78"
    fill="none"
    stroke="#67e8f9"
    stroke-width="6"
    stroke-linecap="round"
    stroke-dasharray="10 10"
  />

  <polygon points="68,174 94,186 68,198" fill="#ffffff"/>

  <rect x="34" y="30" width="90" height="54" rx="14" fill="#ffffff" fill-opacity="0.12" stroke="#ffffff" stroke-opacity="0.35" stroke-width="2"/>
  <path d="M48 68 L64 52 L78 62 L96 40 L110 50" fill="none" stroke="#f8fafc" stroke-width="4" stroke-linecap="round" stroke-linejoin="round"/>

  <circle cx="184" cy="52" r="22" fill="#ffffff" fill-opacity="0.12" stroke="#ffffff" stroke-opacity="0.35" stroke-width="2"/>
  <path d="M172 52 H196 M184 40 V64" stroke="#f8fafc" stroke-width="4" stroke-linecap="round"/>
</svg>
