<svg xmlns="http://www.w3.org/2000/svg" width="256" height="256" viewBox="0 0 256 256">
  <defs>
    <linearGradient id="bg" x1="0%" y1="0%" x2="100%" y2="100%">
      <stop offset="0%" stop-color="#0f172a"/>
      <stop offset="50%" stop-color="#1d4ed8"/>
      <stop offset="100%" stop-color="#22c55e"/>
    </linearGradient>
    <linearGradient id="track" x1="0%" y1="100%" x2="100%" y2="0%">
      <stop offset="0%" stop-color="#a855f7"/>
      <stop offset="100%" stop-color="#f97316"/>
    </linearGradient>
    <filter id="shadow" x="-20%" y="-20%" width="140%" height="140%">
      <feDropShadow dx="0" dy="8" stdDeviation="10" flood-color="#020617" flood-opacity="0.28"/>
    </filter>
  </defs>

  <rect x="8" y="8" width="240" height="240" rx="40" fill="url(#bg)"/>

  <path
    d="M 54.00 210.00
       L 62.80 209.99
       L 71.26 209.92
       L 79.48 209.71
       L 87.57 209.31
       L 95.59 208.61
       L 103.61 207.53
       L 111.66 205.99
       L 119.74 203.90
       L 127.83 201.20
       L 136.15 197.75
       L 147.86 191.06
       L 157.72 183.04
       L 165.73 174.23
       L 172.09 165.13
       L 177.13 156.16
       L 181.19 147.60
       L 184.58 139.70
       L 187.53 132.69
       L 190.19 126.82
       L 192.25 122.89
       L 195.39 118.38
       L 198.53 114.61
       L 201.65 111.49
       L 204.72 108.93
       L 207.72 106.85
       L 210.65 105.19
       L 213.51 103.90
       L 216.27 102.91
       L 218.91 102.21
       L 221.39 101.76
       L 234.02 95.87
       L 241.96 79.31
       L 235.87 61.98
       L 219.31 54.04
       L 211.57 54.73
       L 205.31 56.13
       L 198.85 58.13
       L 192.25 60.79
       L 185.60 64.17
       L 178.98 68.32
       L 172.46 73.26
       L 166.15 79.03
       L 160.12 85.63
       L 154.44 93.08
       L 149.09 101.78
       L 145.16 109.82
       L 141.84 117.49
       L 138.81 124.69
       L 135.86 131.30
       L 132.85 137.19
       L 129.71 142.26
       L 126.36 146.49
       L 122.69 149.99
       L 118.39 152.94
       L 113.54 155.25
       L 108.60 157.09
       L 103.68 158.55
       L 98.61 159.68
       L 93.24 160.55
       L 87.45 161.18
       L 81.14 161.60
       L 74.23 161.85
       L 66.67 161.97
       L 58.41 162.00
       L 49.32 162.46
       L 34.04 172.67
       L 30.46 190.68
       L 40.67 205.96
       L 54.00 210.00
       Z"
    fill="#93c5fd"
    fill-opacity="0.40"
    filter="url(#shadow)"
  />

  <path
    d="M 54.00 203.00
       L 62.77 202.99
       L 71.15 202.92
       L 79.23 202.72
       L 87.10 202.32
       L 94.84 201.65
       L 102.50 200.62
       L 110.13 199.16
       L 117.76 197.18
       L 125.39 194.64
       L 133.19 191.41
       L 143.89 185.29
       L 152.89 177.98
       L 160.24 169.89
       L 166.14 161.44
       L 170.89 152.98
       L 174.79 144.75
       L 178.12 137.00
       L 181.10 129.92
       L 183.90 123.76
       L 186.34 119.13
       L 189.82 114.13
       L 193.37 109.88
       L 196.93 106.32
       L 200.48 103.35
       L 204.01 100.92
       L 207.49 98.95
       L 210.89 97.40
       L 214.20 96.23
       L 217.39 95.38
       L 220.40 94.83
       L 229.35 90.66
       L 234.97 78.93
       L 230.66 66.65
       L 218.93 61.03
       L 212.82 61.62
       L 207.10 62.90
       L 201.19 64.73
       L 195.15 67.17
       L 189.04 70.27
       L 182.95 74.08
       L 176.95 78.64
       L 171.10 83.98
       L 165.50 90.12
       L 160.18 97.08
       L 155.26 105.08
       L 151.53 112.71
       L 148.29 120.20
       L 145.25 127.44
       L 142.19 134.29
       L 138.96 140.60
       L 135.45 146.26
       L 131.55 151.18
       L 127.12 155.41
       L 121.87 159.01
       L 116.22 161.72
       L 110.82 163.73
       L 105.43 165.32
       L 99.92 166.56
       L 94.17 167.49
       L 88.05 168.15
       L 81.49 168.59
       L 74.40 168.85
       L 66.73 168.97
       L 58.41 169.00
       L 50.68 169.33
       L 39.87 176.56
       L 37.33 189.32
       L 44.56 200.13
       L 54.00 203.00
       Z"
    fill="url(#track)"
  />

  <path
    d="M54 186
       C 84 186, 104 186, 126 176
       C 156 162, 160 130, 172 110
       C 186 88, 204 80, 218 78"
    fill="none"
    stroke="#67e8f9"
    stroke-width="6"
    stroke-linecap="round"
    stroke-dasharray="10 10"
  />

  <polygon points="68,174 94,186 68,198" fill="#ffffff"/>

  <rect x="34" y="30" width="90" height="54" rx="14" fill="#ffffff" fill-opacity="0.12" stroke="#ffffff" stroke-opacity="0.35" stroke-width="2"/>
  <path d="M48 68 L64 52 L78 62 L96 40 L110 50" fill="none" stroke="#f8fafc" stroke-width="4" stroke-linecap="round" stroke-linejoin="round"/>

  <circle cx="184" cy="52" r="22" fill="#ffffff" fill-opacity="0.12" stroke="#ffffff" stroke-opacity="0.35" stroke-width="2"/>
  <path d="M172 52 H196 M184 40 V64" stroke="#f8fafc" stroke-width="4" stroke-linecap="round"/>
</svg>
